<svg xmlns="http://www.w3.org/2000/svg" xmlns:xlink="http://www.w3.org/1999/xlink" width="64.133" height="34.595" viewBox="0 0 64.133 34.595">
  <defs>
    <clipPath id="clip-path">
      <rect id="Rectangle_183" data-name="Rectangle 183" width="64.133" height="34.595" fill="none" stroke="#fff" stroke-width="1"/>
    </clipPath>
  </defs>
  <g id="Group_307" data-name="Group 307" transform="translate(2 2)">
    <g id="Group_306" data-name="Group 306" transform="translate(-2 -2)" clip-path="url(#clip-path)">
      <path id="Path_570" data-name="Path 570" d="M16.258,20.427a4.992,4.992,0,1,1-4.992-4.992,4.992,4.992,0,0,1,4.992,4.992M11.267,9.16A11.267,11.267,0,1,0,22.534,20.427,11.267,11.267,0,0,0,11.267,9.16M53.99,20.427A4.992,4.992,0,1,1,49,15.436a4.991,4.991,0,0,1,4.992,4.992M49,9.16A11.267,11.267,0,1,0,60.265,20.427,11.267,11.267,0,0,0,49,9.16M43.706,1.418c-2.225-1.768-5.267-2.009-7.277,0a5.125,5.125,0,0,0-1.491,3.229c-.115,1.45-1.241,1.434-1.714.931h-.005a3.8,3.8,0,0,0-6.173,0l0,0c-.473.5-1.6.519-1.714-.931a5.126,5.126,0,0,0-1.491-3.229c-2.009-2.009-5.052-1.768-7.277,0C14.431,3.11,9.674,7.038,8.86,7.71A12.94,12.94,0,0,1,24.039,22.525a10.243,10.243,0,0,1,12.188.008A12.938,12.938,0,0,1,51.406,7.71h0c-.814-.672-5.571-4.6-7.7-6.292M30.133,18.049A3.65,3.65,0,1,1,33.783,14.4a3.651,3.651,0,0,1-3.651,3.651" transform="translate(1.934 1.934)" fill="none" stroke="#fff" stroke-width="1"/>
    </g>
  </g>
</svg>
