<svg xmlns="http://www.w3.org/2000/svg" width="24.02" height="30.209" viewBox="0 0 24.02 30.209">
  <g id="report-svgrepo-com" transform="translate(-19.699)">
    <path id="Path_2105" data-name="Path 2105" d="M35.913,0H19.7V30.209h24.02V7.806ZM39.7,7.117H36.6V4.024ZM22.056,27.853V2.357H34.246V8.295a1.178,1.178,0,0,0,1.178,1.178h5.937V27.853Z" fill="#3840cd"/>
    <rect id="Rectangle_933" data-name="Rectangle 933" width="13.512" height="1.571" transform="translate(24.953 23.409)" fill="#3840cd"/>
    <rect id="Rectangle_934" data-name="Rectangle 934" width="8.021" height="1.571" transform="translate(24.953 8.657)" fill="#3840cd"/>
    <path id="Path_2106" data-name="Path 2106" d="M62.54,78.506h.871l-3.365,3.365L57.414,79.24,51.6,85.057l1.111,1.111,4.706-4.707,2.631,2.631,4.476-4.476v.869h1.571V76.935H62.54Z" transform="translate(-26.887 -64.848)" fill="#3840cd"/>
    <rect id="Rectangle_935" data-name="Rectangle 935" width="8.021" height="1.571" transform="translate(24.953 5.229)" fill="#3840cd"/>
  </g>
</svg>
