<svg id="Group_292" data-name="Group 292" xmlns="http://www.w3.org/2000/svg" xmlns:xlink="http://www.w3.org/1999/xlink" width="33.357" height="27.06" viewBox="0 0 33.357 27.06">
  <defs>
    <clipPath id="clip-path">
      <rect id="Rectangle_157" data-name="Rectangle 157" width="33.357" height="27.06" fill="#abb0c1"/>
    </clipPath>
  </defs>
  <g id="Group_291" data-name="Group 291" clip-path="url(#clip-path)">
    <path id="Path_541" data-name="Path 541" d="M108.495,10.393h-3.511a1.756,1.756,0,1,1,0-3.511h3.511a1.756,1.756,0,0,1,0,3.511" transform="translate(-76.894 -5.126)" fill="#abb0c1"/>
    <path id="Path_542" data-name="Path 542" d="M93.117,51.684H84.339a1.756,1.756,0,1,1,0-3.511h8.778a1.756,1.756,0,1,1,0,3.511" transform="translate(-61.515 -35.884)" fill="#abb0c1"/>
    <path id="Path_543" data-name="Path 543" d="M93.117,92.975H84.339a1.756,1.756,0,1,1,0-3.511h8.778a1.756,1.756,0,1,1,0,3.511" transform="translate(-61.515 -66.641)" fill="#abb0c1"/>
    <path id="Path_544" data-name="Path 544" d="M8.674,26.851a1.032,1.032,0,0,1-1.652-.826V16.786a3.7,3.7,0,0,0-.036-.722,1.76,1.76,0,0,0-.156-.446,3.737,3.737,0,0,0-.423-.587L.616,7.792a3.7,3.7,0,0,1-.423-.586A1.741,1.741,0,0,1,.036,6.76,3.7,3.7,0,0,1,0,6.037V2.809A4.361,4.361,0,0,1,.191.959,1.757,1.757,0,0,1,.959.191,4.361,4.361,0,0,1,2.809,0H18.258a4.362,4.362,0,0,1,1.851.191,1.756,1.756,0,0,1,.767.767,4.361,4.361,0,0,1,.191,1.85V6.037a3.73,3.73,0,0,1-.036.722,1.75,1.75,0,0,1-.156.446,3.7,3.7,0,0,1-.423.586l-5.791,7.239a3.737,3.737,0,0,0-.423.587,1.751,1.751,0,0,0-.157.446,3.73,3.73,0,0,0-.036.722v5.521a1.032,1.032,0,0,1-.413.826Z" fill="#abb0c1"/>
  </g>
</svg>
