<svg id="Group_21" data-name="Group 21" xmlns="http://www.w3.org/2000/svg" xmlns:xlink="http://www.w3.org/1999/xlink" width="20.448" height="17.615" viewBox="0 0 20.448 17.615">
  <defs>
    <clipPath id="clip-path">
      <rect id="Rectangle_14" data-name="Rectangle 14" width="20.448" height="17.615" fill="#abb0c1"/>
    </clipPath>
  </defs>
  <g id="Group_20" data-name="Group 20" clip-path="url(#clip-path)">
    <path id="Path_24" data-name="Path 24" d="M12.083,16.645c-.457.286-.839.507-1.108.659-.142.08-.286.158-.43.234h0a.7.7,0,0,1-.638,0q-.218-.114-.432-.234a28.951,28.951,0,0,1-4.464-3.1C2.6,12.15,0,9.138,0,5.589A5.539,5.539,0,0,1,5.331,0a5.609,5.609,0,0,1,4.893,2.886A5.61,5.61,0,0,1,15.117,0a5.54,5.54,0,0,1,5.331,5.59c0,3.549-2.6,6.562-5.009,8.609a28.952,28.952,0,0,1-3.356,2.446" fill="#abb0c1"/>
  </g>
</svg>
