<svg id="Group_286" data-name="Group 286" xmlns="http://www.w3.org/2000/svg" xmlns:xlink="http://www.w3.org/1999/xlink" width="18.509" height="18.505" viewBox="0 0 18.509 18.505">
  <defs>
    <clipPath id="clip-path">
      <rect id="Rectangle_156" data-name="Rectangle 156" width="18.509" height="18.505" fill="#9da1b2"/>
    </clipPath>
  </defs>
  <g id="Group_285" data-name="Group 285" clip-path="url(#clip-path)">
    <path id="Path_540" data-name="Path 540" d="M17.154,1.355C15.8,0,13.617,0,9.255,0s-6.544,0-7.9,1.355S0,4.892,0,9.255s0,6.544,1.355,7.9c1.155,1.155,2.909,1.326,6.1,1.351V9.742a1.8,1.8,0,0,1,3.6,0V18.5c3.192-.025,4.946-.2,6.1-1.351,1.355-1.355,1.355-3.537,1.355-7.9s0-6.544-1.355-7.9m-7.9,4.4a1.964,1.964,0,1,1,1.964-1.964A1.964,1.964,0,0,1,9.255,5.758" fill="#9da1b2" fill-rule="evenodd"/>
  </g>
</svg>
