<svg id="Group_51" data-name="Group 51" xmlns="http://www.w3.org/2000/svg" xmlns:xlink="http://www.w3.org/1999/xlink" width="54.372" height="54.372" viewBox="0 0 54.372 54.372">
  <defs>
    <clipPath id="clip-path">
      <rect id="Rectangle_28" data-name="Rectangle 28" width="54.372" height="54.372" fill="none"/>
    </clipPath>
    <clipPath id="clip-path-3">
      <rect id="Rectangle_23" data-name="Rectangle 23" width="12.738" height="20.763" fill="none"/>
    </clipPath>
    <clipPath id="clip-path-4">
      <rect id="Rectangle_24" data-name="Rectangle 24" width="12.747" height="17.635" fill="none"/>
    </clipPath>
    <clipPath id="clip-path-5">
      <rect id="Rectangle_25" data-name="Rectangle 25" width="12.738" height="13.085" fill="none"/>
    </clipPath>
    <clipPath id="clip-path-6">
      <rect id="Rectangle_26" data-name="Rectangle 26" width="12.74" height="13.085" fill="none"/>
    </clipPath>
  </defs>
  <g id="Group_50" data-name="Group 50" clip-path="url(#clip-path)">
    <g id="Group_49" data-name="Group 49" transform="translate(0 0)">
      <g id="Group_48" data-name="Group 48" clip-path="url(#clip-path)">
        <path id="Path_36" data-name="Path 36" d="M27.186,0A27.186,27.186,0,1,1,0,27.186,27.186,27.186,0,0,1,27.186,0" transform="translate(0 0)" fill="#627eea" fill-rule="evenodd"/>
        <g id="Group_38" data-name="Group 38" transform="translate(28.032 6.797)" opacity="0.602">
          <g id="Group_37" data-name="Group 37">
            <g id="Group_36" data-name="Group 36" clip-path="url(#clip-path-3)">
              <path id="Path_37" data-name="Path 37" d="M37.967,9.205V24.277l12.738,5.692Z" transform="translate(-37.967 -9.205)" fill="#fff"/>
            </g>
          </g>
        </g>
        <path id="Path_38" data-name="Path 38" d="M33.452,9.205,20.712,29.969l12.74-5.692Z" transform="translate(-5.42 -2.409)" fill="#fff"/>
        <g id="Group_41" data-name="Group 41" transform="translate(28.032 29.932)" opacity="0.602">
          <g id="Group_40" data-name="Group 40">
            <g id="Group_39" data-name="Group 39" clip-path="url(#clip-path-4)">
              <path id="Path_39" data-name="Path 39" d="M37.967,47.935V58.175L50.714,40.54Z" transform="translate(-37.967 -40.54)" fill="#fff"/>
            </g>
          </g>
        </g>
        <path id="Path_40" data-name="Path 40" d="M33.452,58.175V47.933L20.712,40.54Z" transform="translate(-5.42 -10.608)" fill="#fff"/>
        <g id="Group_44" data-name="Group 44" transform="translate(28.032 21.871)" opacity="0.2">
          <g id="Group_43" data-name="Group 43">
            <g id="Group_42" data-name="Group 42" clip-path="url(#clip-path-5)">
              <path id="Path_41" data-name="Path 41" d="M37.967,42.708l12.738-7.4L37.967,29.623Z" transform="translate(-37.967 -29.623)" fill="#fff"/>
            </g>
          </g>
        </g>
        <g id="Group_47" data-name="Group 47" transform="translate(15.292 21.871)" opacity="0.602">
          <g id="Group_46" data-name="Group 46">
            <g id="Group_45" data-name="Group 45" clip-path="url(#clip-path-6)">
              <path id="Path_42" data-name="Path 42" d="M20.712,35.311l12.74,7.4V29.622Z" transform="translate(-20.712 -29.622)" fill="#fff"/>
            </g>
          </g>
        </g>
      </g>
    </g>
  </g>
</svg>
