<svg xmlns="http://www.w3.org/2000/svg" xmlns:xlink="http://www.w3.org/1999/xlink" width="28.169" height="28.173" viewBox="0 0 28.169 28.173">
  <defs>
    <clipPath id="clip-path">
      <rect id="Rectangle_16" data-name="Rectangle 16" width="28.169" height="28.173" transform="translate(0 0)" fill="none"/>
    </clipPath>
  </defs>
  <g id="Group_25" data-name="Group 25" transform="translate(0 0)">
    <g id="Group_24" data-name="Group 24" transform="translate(0 0)" clip-path="url(#clip-path)">
      <path id="Path_27" data-name="Path 27" d="M27.748,17.494A14.082,14.082,0,1,1,17.49.422,14.083,14.083,0,0,1,27.748,17.494Z" transform="translate(0 0)" fill="#f7931a"/>
      <path id="Path_28" data-name="Path 28" d="M31.358,20c.28-1.874-1.147-2.882-3.1-3.554l.633-2.539-1.546-.385-.616,2.472c-.406-.1-.823-.2-1.238-.291l.621-2.489-1.544-.385-.634,2.538c-.336-.077-.666-.152-.987-.232l0-.008L20.819,14.6l-.411,1.651s1.147.263,1.122.279a.822.822,0,0,1,.72.9l-.723,2.9L20.516,24.38a.563.563,0,0,1-.709.367c.015.022-1.123-.28-1.123-.28l-.767,1.769,2.012.5c.374.094.741.192,1.1.284l-.64,2.569,1.544.385.634-2.541c.421.114.831.22,1.231.319l-.631,2.529,1.546.385.64-2.563c2.635.5,4.618.3,5.451-2.086a2.712,2.712,0,0,0-1.42-3.749A2.467,2.467,0,0,0,31.358,20Zm-3.531,4.952c-.478,1.919-3.709.882-4.758.622l.849-3.4c1.047.262,4.407.779,3.909,2.781Zm.477-4.979c-.436,1.746-3.126.859-4,.641l.769-3.086c.873.218,3.683.624,3.229,2.445" transform="translate(-11.063 -7.922)" fill="#fff"/>
    </g>
  </g>
</svg>
