<svg xmlns="http://www.w3.org/2000/svg" xmlns:xlink="http://www.w3.org/1999/xlink" width="51.353" height="46.677" viewBox="0 0 51.353 46.677">
  <defs>
    <clipPath id="clip-path">
      <rect id="Rectangle_159" data-name="Rectangle 159" width="51.353" height="40.312" rx="10" fill="none"/>
    </clipPath>
  </defs>
  <g id="Group_298" data-name="Group 298" transform="translate(-322.51 -226.5)">
    <path id="Path_545" data-name="Path 545" d="M93.431,43.875H77.7A14.076,14.076,0,0,1,63.627,29.8V14.071A14.076,14.076,0,0,1,77.7-.005H93.431a14.076,14.076,0,0,1,14.076,14.076V29.8A14.076,14.076,0,0,1,93.431,43.875" transform="translate(262.619 226.505)" fill="#f1f2f5"/>
    <g id="Group_297" data-name="Group 297" transform="translate(322.51 232.866)">
      <g id="Group_296" data-name="Group 296" clip-path="url(#clip-path)">
        <path id="Path_546" data-name="Path 546" d="M331.091,86.663V98.642c-.909,1.115-2.317,2.519-3.518,2.318-1.958-.328-2.462-2.892-3.212-6.757s1.568-7.757,6.73-7.539" transform="translate(-305.184 -85.134)" fill="#120283"/>
        <path id="Path_547" data-name="Path 547" d="M441.176,86.663V98.642c.909,1.115,2.317,2.519,3.518,2.318,1.958-.328,2.462-2.892,3.212-6.757s-1.568-7.757-6.73-7.539" transform="translate(-415.269 -85.134)" fill="#120283"/>
        <path id="Path_548" data-name="Path 548" d="M148,491.02c0,.033,0,.065,0,.1-.051.085-.1.168-.158.252l-.087.134a13.6,13.6,0,0,1-3.587,3.519l0,0c-.12.084-.243.168-.367.249s-.226.148-.341.221q-.311.2-.632.385c-4.116,2.415-9.419,3.774-13.56,4.52a62.392,62.392,0,0,1-6.657.857l-5.469-2.844-1.473-.766-2.082-1.082-1.87-.972-.174-.091-.662-.345-1.087-.566v-11s0-.079.008-.223c.005-.086.013-.2.024-.327,0-.019,0-.039.005-.059.031-.341.088-.81.193-1.369h0a16.181,16.181,0,0,1,.552-2.132c.035-.1.072-.209.11-.315a14.619,14.619,0,0,1,1.76-3.449c.072-.1.144-.2.22-.3a13.08,13.08,0,0,1,3.574-3.317c.156-.1.316-.2.481-.29a14.686,14.686,0,0,1,1.907-.917q.655-.259,1.376-.475.7-.208,1.472-.369l.261-.052q.632-.123,1.311-.21l12.352-.053.046.014c.134.041.556.175,1.166.407l.031.012.039.015.055.022c.142.055.292.115.451.179.437.179.933.4,1.466.655.472.229.972.489,1.484.782q.245.141.494.291a16.937,16.937,0,0,1,4.038,3.314q.13.148.254.3a10.163,10.163,0,0,1,1.879,3.463q.051.157.1.32a20.633,20.633,0,0,1,.563,2.45c.042.242.08.486.116.733.019.131.037.262.055.395.014.108.028.216.041.325q.057.464.1.935c.089.895.148,1.8.184,2.693,0,.111.009.22.013.33.045,1.285.045,2.532.023,3.659" transform="translate(-103.339 -445.709)" fill="#383fcd"/>
        <path id="Path_549" data-name="Path 549" d="M326.844,469.724c-.084.093-6.065,6.708-13.664.263q.632-.123,1.311-.21Z" transform="translate(-294.789 -445.709)" fill="#120283"/>
        <path id="Path_550" data-name="Path 550" d="M343.422,358.972a11.258,11.258,0,0,1-3.943,2.207l-.009,0h0a9.407,9.407,0,0,1-8.677-2.048c.093-.035.186-.071.276-.108a4.589,4.589,0,0,0,.692-.347,5.173,5.173,0,0,0,1.975-2.235,8.824,8.824,0,0,0,.687-4.381H340.2a12.333,12.333,0,0,0,.023,2.32,6.823,6.823,0,0,0,.467,1.971,4.858,4.858,0,0,0,2.73,2.617" transform="translate(-311.367 -334.957)" fill="#cdc3f4"/>
        <path id="Path_551" data-name="Path 551" d="M400.283,354.381a1.909,1.909,0,0,1-1.51,1.045,4.391,4.391,0,0,1-4.175-2.666l.14-.7h5.521a12.336,12.336,0,0,0,.024,2.321" transform="translate(-371.426 -334.955)" fill="#120283"/>
        <path id="Path_552" data-name="Path 552" d="M514.994,244.047a1.2,1.2,0,1,0-2.381,0c0,.754.533,1.7,1.19,1.7s1.19-.948,1.19-1.7" transform="translate(-482.511 -231.999)" fill="#cdc3f4"/>
        <path id="Path_553" data-name="Path 553" d="M526.225,259.006l-.084-.009c0-.009.1-.9.929-.921l0,.084c-.754.02-.846.837-.847.846" transform="translate(-495.245 -246.49)" fill="#120283"/>
        <path id="Path_554" data-name="Path 554" d="M527.673,267.082a.485.485,0,0,0-.793,0l-.067-.051a.568.568,0,0,1,.921,0Z" transform="translate(-495.877 -254.692)" fill="#120283"/>
        <path id="Path_555" data-name="Path 555" d="M328.042,244.047a1.2,1.2,0,1,1,2.381,0c0,.754-.533,1.7-1.19,1.7s-1.19-.948-1.19-1.7" transform="translate(-308.779 -231.999)" fill="#cdc3f4"/>
        <path id="Path_556" data-name="Path 556" d="M342.288,259.006l.084-.009c0-.009-.1-.9-.929-.921l0,.084c.754.02.846.837.847.846" transform="translate(-321.391 -246.49)" fill="#120283"/>
        <path id="Path_557" data-name="Path 557" d="M341.007,267.082a.485.485,0,0,1,.793,0l.067-.051a.568.568,0,0,0-.921,0Z" transform="translate(-320.925 -254.692)" fill="#120283"/>
        <path id="Path_558" data-name="Path 558" d="M364.921,158.051a4.21,4.21,0,0,1-6.675,0,.161.161,0,0,0-.016-.019c-1.58-2-1.9-4.9-1.474-8.367.308-2.491,2.657-3.456,3.961-3.8a3.364,3.364,0,0,1,1.732,0c1.3.347,3.653,1.312,3.96,3.8.429,3.473.1,6.389-1.489,8.386" transform="translate(-335.644 -140.758)" fill="#cdc3f4"/>
        <path id="Path_559" data-name="Path 559" d="M468.1,262.2a.286.286,0,1,0-.286.286.286.286,0,0,0,.286-.286" transform="translate(-440.073 -250.102)" fill="#120283"/>
        <path id="Path_560" data-name="Path 560" d="M403.639,262.2a.286.286,0,1,0-.286.286.286.286,0,0,0,.286-.286" transform="translate(-379.397 -250.102)" fill="#120283"/>
        <path id="Path_561" data-name="Path 561" d="M455.825,215.838s-.687.028-1.59.035-1.135-.007-1.055-.373.986-.359,1.551-.232a3.05,3.05,0,0,1,1.094.57" transform="translate(-426.555 -206.121)" fill="#120283"/>
        <path id="Path_562" data-name="Path 562" d="M380.755,215.838s.687.028,1.59.035,1.135-.007,1.055-.373-.986-.359-1.551-.232a3.05,3.05,0,0,0-1.094.57" transform="translate(-358.396 -206.121)" fill="#120283"/>
        <path id="Path_563" data-name="Path 563" d="M433.5,276.508a.4.4,0,0,1-.261-.069.153.153,0,0,1-.045-.143c.042-.263.195-1.307.2-1.318l.083.012c0,.01-.155,1.055-.2,1.319a.069.069,0,0,0,.019.068c.078.073.351.045.5.01l.019.082a1.605,1.605,0,0,1-.32.038" transform="translate(-407.757 -262.399)" fill="#120283"/>
        <path id="Path_564" data-name="Path 564" d="M437.876,297.511a1.542,1.542,0,0,1-.305-.027.047.047,0,0,1,.021-.092,1.457,1.457,0,0,0,1.583-.73.047.047,0,0,1,.083.045,1.51,1.51,0,0,1-1.381.8" transform="translate(-411.841 -282.787)" fill="#120283"/>
        <path id="Path_565" data-name="Path 565" d="M453.6,312.088a.047.047,0,0,1-.009-.093.635.635,0,0,0,.2-.075.047.047,0,1,1,.048.081.726.726,0,0,1-.23.086H453.6" transform="translate(-426.923 -297.165)" fill="#120283"/>
        <path id="Path_566" data-name="Path 566" d="M518.594,186.791l.315,4.7.339-1.583s1.008-2.1-.653-3.113" transform="translate(-488.141 -179.391)" fill="#120283"/>
        <path id="Path_567" data-name="Path 567" d="M349.51,177.435l-.443,5.246-.21-1.583a3.256,3.256,0,0,1,.653-3.663" transform="translate(-328.086 -170.584)" fill="#120283"/>
        <path id="Path_568" data-name="Path 568" d="M350.405,128.153c-2.739,1.709-4.1-1.763-4.116-3.445s-1.8-1.6-1.8-1.6a1.864,1.864,0,0,0-1.984,2.337c.244,1.669-.777,2.337-2.046,2.738a2.049,2.049,0,0,1-2.036-.367l.077-.4a2.816,2.816,0,0,0,3.072-1.8c-.041.048-1.046,2.1-3.035,1.61l.994-5.15,4.978-1.235h1.462s2.7,1.068,3.474,2.838a7.179,7.179,0,0,1,.4,3.754c-1.221.29-2.177-1.518-2.2-1.566a2.45,2.45,0,0,0,2.74,1.707Z" transform="translate(-318.549 -117.308)" fill="#120283"/>
      </g>
    </g>
  </g>
</svg>
