<svg id="Group_319" data-name="Group 319" xmlns="http://www.w3.org/2000/svg" xmlns:xlink="http://www.w3.org/1999/xlink" width="41.99" height="46.199" viewBox="0 0 41.99 46.199">
  <defs>
    <clipPath id="clip-path">
      <rect id="Rectangle_186" data-name="Rectangle 186" width="41.99" height="46.199" fill="#3840cd"/>
    </clipPath>
  </defs>
  <g id="Group_318" data-name="Group 318" clip-path="url(#clip-path)">
    <path id="Path_574" data-name="Path 574" d="M30.314,21.934c-.508,1.032-2.255,4.417-3.223,6.084a7.846,7.846,0,0,1-11.123-.051,7.852,7.852,0,0,1-.479-11.113q2.166-2.221,3.97-4.043c.767,2.328,3.833,5.356,4.938,6.1a24.018,24.018,0,0,0,5.917,3.022M20.575,3.074c-2.92,4.057-.785,10.585,4.767,14.581s12.42,3.947,15.34-.109.785-10.585-4.767-14.581-12.42-3.947-15.34.109M3.18,45.883a1.289,1.289,0,0,1-1.772-.077,1.289,1.289,0,0,1-.494-1.7l3.428-4.94a10.167,10.167,0,0,0,1.464,1.427,10.533,10.533,0,0,0,1.641,1.162ZM27.94,29.616c-3.066,3.333-9.913,3.186-13.527-.34-3.233-3.154-4.025-7.306-2.206-10.987.47-.664,2.364-2.036,2.968-2.771-5-1.081-9.63.2-12.972,4.265C-2.213,25.16.248,34.661,7.447,40.051c7.8,5.837,16.816,5.04,21-.522,2.416-3.214,2.443-8.149.8-12.27-.551.96-1.133,2.12-1.3,2.357" transform="translate(0 0)" fill="#3840cd"/>
  </g>
</svg>
