<svg id="Group_72" data-name="Group 72" xmlns="http://www.w3.org/2000/svg" xmlns:xlink="http://www.w3.org/1999/xlink" width="54.372" height="54.372" viewBox="0 0 54.372 54.372">
  <defs>
    <clipPath id="clip-path">
      <rect id="Rectangle_60" data-name="Rectangle 60" width="54.372" height="54.372" fill="none"/>
    </clipPath>
  </defs>
  <g id="Group_71" data-name="Group 71" transform="translate(0 0)" clip-path="url(#clip-path)">
    <path id="Path_288" data-name="Path 288" d="M27.186,0A27.186,27.186,0,1,1,0,27.186,27.186,27.186,0,0,1,27.186,0" transform="translate(0 0)" fill="#172852"/>
    <path id="Path_289" data-name="Path 289" d="M29.056,16.128a15.8,15.8,0,0,1,10.01-.215,16.068,16.068,0,0,1,9.649,8.5A9.78,9.78,0,0,1,49.77,28a36.769,36.769,0,0,0-7.582-3.08c-4.171-1.5-8.537-2.547-12.484-4.613-.918-.549-2.09-1.112-2.341-2.256-.1-.989.946-1.542,1.694-1.925" transform="translate(-7.158 -3.978)" fill="#ffd83d"/>
    <path id="Path_290" data-name="Path 290" d="M16.322,27.171a15.529,15.529,0,0,1,4.485-6.544,20.163,20.163,0,0,0,5.367,11.562,19.319,19.319,0,0,0,14.017,5.981,28.2,28.2,0,0,0,6.15-.8c-2,7.221-9.912,12.013-17.245,10.861A15.919,15.919,0,0,1,16.322,27.171" transform="translate(-4.034 -5.397)" fill="#ffd83d"/>
    <path id="Path_291" data-name="Path 291" d="M47.444,28.367a36.753,36.753,0,0,1,7.582,3.08l.161.084a16.333,16.333,0,0,1,.086,5,14.875,14.875,0,0,1-3.173-2.18c-1.946-1.621-3.934-3.475-4.657-5.986" transform="translate(-12.414 -7.423)" fill="#ff6f03"/>
  </g>
</svg>
