<svg id="Group_56" data-name="Group 56" xmlns="http://www.w3.org/2000/svg" xmlns:xlink="http://www.w3.org/1999/xlink" width="54.373" height="54.372" viewBox="0 0 54.373 54.372">
  <defs>
    <clipPath id="clip-path">
      <circle id="Ellipse_6" data-name="Ellipse 6" cx="27.186" cy="27.186" r="27.186" fill="none"/>
    </clipPath>
    <clipPath id="clip-path-2">
      <rect id="Rectangle_49" data-name="Rectangle 49" width="54.372" height="54.372" fill="none"/>
    </clipPath>
  </defs>
  <path id="Path_287" data-name="Path 287" d="M27.186,0A27.186,27.186,0,1,1,0,27.186,27.186,27.186,0,0,1,27.186,0" transform="translate(0 0)" fill="#fff"/>
  <g id="Group_53" data-name="Group 53" transform="translate(0 0)">
    <g id="Group_52" data-name="Group 52" clip-path="url(#clip-path)">
      <path id="Path_43" data-name="Path 43" d="M71.409,6.179,65.108,0h6.3Z" transform="translate(-17.037 0)" fill="#00ffa3"/>
      <path id="Path_44" data-name="Path 44" d="M71.266,6.573,64.563,0h.4l6.3,6.178Z" transform="translate(-16.894 0)" fill="#00ffa3"/>
      <path id="Path_45" data-name="Path 45" d="M71.124,6.968,64.018,0h.4l6.7,6.573Z" transform="translate(-16.751 0)" fill="#01fea3"/>
      <path id="Path_46" data-name="Path 46" d="M70.981,7.363,63.473,0h.4l7.106,6.968Z" transform="translate(-16.609 0)" fill="#02fda4"/>
      <path id="Path_47" data-name="Path 47" d="M70.838,7.757,62.928,0h.4l7.508,7.363Z" transform="translate(-16.466 0)" fill="#03fca4"/>
      <path id="Path_48" data-name="Path 48" d="M70.7,8.152,62.383,0h.4L70.7,7.757Z" transform="translate(-16.324 0)" fill="#04fba5"/>
      <path id="Path_49" data-name="Path 49" d="M70.553,8.547,61.838,0h.4l8.313,8.152Z" transform="translate(-16.181 0)" fill="#05faa5"/>
      <path id="Path_50" data-name="Path 50" d="M70.411,8.942,61.293,0h.4l8.715,8.546Z" transform="translate(-16.038 0)" fill="#06f9a5"/>
      <path id="Path_51" data-name="Path 51" d="M70.268,9.336,60.747,0h.4l9.118,8.941Z" transform="translate(-15.895 0)" fill="#07f8a6"/>
      <path id="Path_52" data-name="Path 52" d="M70.125,9.731,60.2,0h.4l9.521,9.336Z" transform="translate(-15.753 0)" fill="#08f7a6"/>
      <path id="Path_53" data-name="Path 53" d="M69.982,10.126,59.657,0h.4l9.923,9.73Z" transform="translate(-15.61 0)" fill="#09f6a7"/>
      <path id="Path_54" data-name="Path 54" d="M69.84,10.52,59.112,0h.4L69.84,10.125Z" transform="translate(-15.468 0)" fill="#0af5a7"/>
      <path id="Path_55" data-name="Path 55" d="M69.7,10.915,58.567,0h.4L69.7,10.52Z" transform="translate(-15.325 0)" fill="#0bf4a8"/>
      <path id="Path_56" data-name="Path 56" d="M69.555,11.309,58.022,0h.4l11.13,10.915Z" transform="translate(-15.182 0)" fill="#0cf3a8"/>
      <path id="Path_57" data-name="Path 57" d="M69.412,11.7,57.477,0h.4L69.412,11.309Z" transform="translate(-15.04 0)" fill="#0df2a8"/>
      <path id="Path_58" data-name="Path 58" d="M69.269,12.1,56.932,0h.4L69.269,11.7Z" transform="translate(-14.897 0)" fill="#0ef1a9"/>
      <path id="Path_59" data-name="Path 59" d="M69.127,12.494,56.387,0h.4L69.127,12.1Z" transform="translate(-14.755 0)" fill="#0ff0a9"/>
      <path id="Path_60" data-name="Path 60" d="M68.984,12.888,55.841,0h.4l12.74,12.493Z" transform="translate(-14.612 0)" fill="#10efaa"/>
      <path id="Path_61" data-name="Path 61" d="M68.841,13.283,55.3,0h.4L68.841,12.888Z" transform="translate(-14.469 0)" fill="#1ea"/>
      <path id="Path_62" data-name="Path 62" d="M68.7,13.678,54.751,0h.4L68.7,13.283Z" transform="translate(-14.326 0)" fill="#12edaa"/>
      <path id="Path_63" data-name="Path 63" d="M68.556,14.072,54.206,0h.4L68.556,13.677Z" transform="translate(-14.184 0)" fill="#13ecab"/>
      <path id="Path_64" data-name="Path 64" d="M68.414,14.467,53.661,0h.4l14.35,14.072Z" transform="translate(-14.041 0)" fill="#14ebab"/>
      <path id="Path_65" data-name="Path 65" d="M68.271,14.862,53.116,0h.4L68.271,14.467Z" transform="translate(-13.899 0)" fill="#15eaac"/>
      <path id="Path_66" data-name="Path 66" d="M68.128,15.256,52.571,0h.4L68.128,14.861Z" transform="translate(-13.756 0)" fill="#16e9ac"/>
      <path id="Path_67" data-name="Path 67" d="M67.986,15.651,52.026,0h.4L67.986,15.256Z" transform="translate(-13.613 0)" fill="#17e8ac"/>
      <path id="Path_68" data-name="Path 68" d="M67.843,16.046,51.481,0h.4l15.96,15.65Z" transform="translate(-13.471 0)" fill="#18e7ad"/>
      <path id="Path_69" data-name="Path 69" d="M67.7,16.44,50.936,0h.4L67.7,16.045Z" transform="translate(-13.328 0)" fill="#19e6ad"/>
      <path id="Path_70" data-name="Path 70" d="M67.558,16.835,50.39,0h.4L67.558,16.44Z" transform="translate(-13.185 0)" fill="#1ae5ae"/>
      <path id="Path_71" data-name="Path 71" d="M67.415,17.23,49.845,0h.4L67.415,16.835Z" transform="translate(-13.043 0)" fill="#1be4ae"/>
      <path id="Path_72" data-name="Path 72" d="M67.272,17.624,49.3,0h.4l17.57,17.23Z" transform="translate(-12.9 0)" fill="#1ce3af"/>
      <path id="Path_73" data-name="Path 73" d="M67.13,18.019,48.755,0h.4L67.13,17.624Z" transform="translate(-12.758 0)" fill="#1de2af"/>
      <path id="Path_74" data-name="Path 74" d="M66.987,18.414,48.21,0h.4L66.987,18.019Z" transform="translate(-12.615 0)" fill="#1ee1af"/>
      <path id="Path_75" data-name="Path 75" d="M66.845,18.809,47.665,0h.4L66.845,18.414Z" transform="translate(-12.472 0)" fill="#1fe0b0"/>
      <path id="Path_76" data-name="Path 76" d="M66.7,19.2,47.12,0h.4L66.7,18.808Z" transform="translate(-12.33 0)" fill="#20dfb0"/>
      <path id="Path_77" data-name="Path 77" d="M66.559,19.6,46.575,0h.4L66.559,19.2Z" transform="translate(-12.187 0)" fill="#21deb1"/>
      <path id="Path_78" data-name="Path 78" d="M66.417,19.993,46.03,0h.4L66.417,19.6Z" transform="translate(-12.044 0)" fill="#22ddb1"/>
      <path id="Path_79" data-name="Path 79" d="M66.274,20.387,45.484,0h.4L66.274,19.992Z" transform="translate(-11.902 0)" fill="#23dcb1"/>
      <path id="Path_80" data-name="Path 80" d="M66.131,20.782,44.939,0h.4l20.79,20.387Z" transform="translate(-11.759 0)" fill="#24dbb2"/>
      <path id="Path_81" data-name="Path 81" d="M65.989,21.176,44.394,0h.4L65.989,20.781Z" transform="translate(-11.616 0)" fill="#25dab2"/>
      <path id="Path_82" data-name="Path 82" d="M65.846,21.571,43.849,0h.4L65.846,21.176Z" transform="translate(-11.474 0)" fill="#25d9b3"/>
      <path id="Path_83" data-name="Path 83" d="M65.7,21.966,43.3,0h.4l22,21.571Z" transform="translate(-11.331 0)" fill="#26d8b3"/>
      <path id="Path_84" data-name="Path 84" d="M65.561,22.361,42.759,0h.4l22.4,21.965Z" transform="translate(-11.189 0)" fill="#27d7b4"/>
      <path id="Path_85" data-name="Path 85" d="M65.418,22.755,42.214,0h.4l22.8,22.36Z" transform="translate(-11.046 0)" fill="#28d6b4"/>
      <path id="Path_86" data-name="Path 86" d="M65.276,23.15,41.669,0h.4l23.2,22.755Z" transform="translate(-10.903 0)" fill="#29d5b4"/>
      <path id="Path_87" data-name="Path 87" d="M65.133,23.545,41.124,0h.4L65.133,23.15Z" transform="translate(-10.761 0)" fill="#2ad4b5"/>
      <path id="Path_88" data-name="Path 88" d="M64.99,23.939,40.579,0h.4L64.99,23.544Z" transform="translate(-10.618 0)" fill="#2bd3b5"/>
      <path id="Path_89" data-name="Path 89" d="M64.848,24.334,40.033,0h.4L64.848,23.939Z" transform="translate(-10.475 0)" fill="#2cd2b6"/>
      <path id="Path_90" data-name="Path 90" d="M64.7,24.729,39.488,0h.4L64.7,24.334Z" transform="translate(-10.333 0)" fill="#2dd1b6"/>
      <path id="Path_91" data-name="Path 91" d="M64.562,25.123,38.943,0h.4L64.562,24.728Z" transform="translate(-10.19 0)" fill="#2ed0b6"/>
      <path id="Path_92" data-name="Path 92" d="M64.42,25.518,38.4,0h.4L64.42,25.123Z" transform="translate(-10.047 0)" fill="#2fcfb7"/>
      <path id="Path_93" data-name="Path 93" d="M64.277,25.913,37.853,0h.4L64.277,25.518Z" transform="translate(-9.905 0)" fill="#30ceb7"/>
      <path id="Path_94" data-name="Path 94" d="M64.135,26.307,37.308,0h.4L64.135,25.912Z" transform="translate(-9.762 0)" fill="#31cdb8"/>
      <path id="Path_95" data-name="Path 95" d="M63.992,26.7,36.763,0h.4L63.992,26.307Z" transform="translate(-9.62 0)" fill="#32ccb8"/>
      <path id="Path_96" data-name="Path 96" d="M63.849,27.1,36.218,0h.4L63.849,26.7Z" transform="translate(-9.477 0)" fill="#33cbb8"/>
      <path id="Path_97" data-name="Path 97" d="M63.707,27.492,35.673,0h.4L63.707,27.1Z" transform="translate(-9.334 0)" fill="#34cab9"/>
      <path id="Path_98" data-name="Path 98" d="M63.564,27.886,35.128,0h.4L63.564,27.491Z" transform="translate(-9.192 0)" fill="#35c9b9"/>
      <path id="Path_99" data-name="Path 99" d="M63.421,28.281,34.582,0h.4L63.421,27.886Z" transform="translate(-9.049 0)" fill="#36c8ba"/>
      <path id="Path_100" data-name="Path 100" d="M63.279,28.676,34.037,0h.4L63.279,28.28Z" transform="translate(-8.906 0)" fill="#37c7ba"/>
      <path id="Path_101" data-name="Path 101" d="M63.136,29.07,33.492,0h.4L63.136,28.675Z" transform="translate(-8.764 0)" fill="#38c6bb"/>
      <path id="Path_102" data-name="Path 102" d="M62.993,29.465,32.947,0h.4L62.993,29.07Z" transform="translate(-8.621 0)" fill="#39c5bb"/>
      <path id="Path_103" data-name="Path 103" d="M62.851,29.859,32.4,0h.4L62.851,29.464Z" transform="translate(-8.478 0)" fill="#3ac4bb"/>
      <path id="Path_104" data-name="Path 104" d="M62.708,30.254,31.857,0h.4L62.708,29.859Z" transform="translate(-8.336 0)" fill="#3bc3bc"/>
      <path id="Path_105" data-name="Path 105" d="M62.566,30.649,31.312,0h.4L62.566,30.254Z" transform="translate(-8.193 0)" fill="#3cc2bc"/>
      <path id="Path_106" data-name="Path 106" d="M62.423,31.044,30.767,0h.4L62.423,30.649Z" transform="translate(-8.051 0)" fill="#3dc1bd"/>
      <path id="Path_107" data-name="Path 107" d="M62.28,31.438,30.222,0h.4L62.28,31.043Z" transform="translate(-7.908 0)" fill="#3ec0bd"/>
      <path id="Path_108" data-name="Path 108" d="M62.137,31.833,29.676,0h.4L62.137,31.438Z" transform="translate(-7.765 0)" fill="#3fbfbd"/>
      <path id="Path_109" data-name="Path 109" d="M61.995,32.228,29.131,0h.4L61.995,31.833Z" transform="translate(-7.623 0)" fill="#40bebe"/>
      <path id="Path_110" data-name="Path 110" d="M61.852,32.622,28.586,0h.4L61.852,32.227Z" transform="translate(-7.48 0)" fill="#41bdbe"/>
      <path id="Path_111" data-name="Path 111" d="M61.71,33.017,28.041,0h.4L61.71,32.622Z" transform="translate(-7.337 0)" fill="#42bcbf"/>
      <path id="Path_112" data-name="Path 112" d="M61.567,33.412,27.5,0h.4L61.567,33.017Z" transform="translate(-7.195 0)" fill="#43bbbf"/>
      <path id="Path_113" data-name="Path 113" d="M61.424,33.806,26.951,0h.4L61.424,33.411Z" transform="translate(-7.052 0)" fill="#44babf"/>
      <path id="Path_114" data-name="Path 114" d="M61.282,34.2,26.406,0h.4L61.282,33.806Z" transform="translate(-6.91 0)" fill="#45b9c0"/>
      <path id="Path_115" data-name="Path 115" d="M61.139,34.6,25.861,0h.4L61.139,34.2Z" transform="translate(-6.767 0)" fill="#46b8c0"/>
      <path id="Path_116" data-name="Path 116" d="M61,34.99,25.316,0h.4L61,34.6Z" transform="translate(-6.624 0)" fill="#47b7c1"/>
      <path id="Path_117" data-name="Path 117" d="M60.854,35.385,24.771,0h.4L60.854,34.99Z" transform="translate(-6.482 0)" fill="#48b6c1"/>
      <path id="Path_118" data-name="Path 118" d="M60.711,35.78,24.225,0h.4L60.711,35.385Z" transform="translate(-6.339 0)" fill="#49b5c2"/>
      <path id="Path_119" data-name="Path 119" d="M60.569,36.174,23.68,0h.4l36.486,35.78Z" transform="translate(-6.196 0)" fill="#4ab4c2"/>
      <path id="Path_120" data-name="Path 120" d="M60.426,36.569,23.135,0h.4L60.426,36.174Z" transform="translate(-6.054 0)" fill="#4bb3c2"/>
      <path id="Path_121" data-name="Path 121" d="M60.283,36.964,22.59,0h.4L60.283,36.569Z" transform="translate(-5.911 0)" fill="#4cb2c3"/>
      <path id="Path_122" data-name="Path 122" d="M60.141,37.359,22.045,0h.4L60.141,36.964Z" transform="translate(-5.768 0)" fill="#4db1c3"/>
      <path id="Path_123" data-name="Path 123" d="M60,37.753,21.5,0h.4L60,37.358Z" transform="translate(-5.626 0)" fill="#4eb0c4"/>
      <path id="Path_124" data-name="Path 124" d="M59.855,38.148,20.955,0h.4l38.5,37.752Z" transform="translate(-5.483 0)" fill="#4fafc4"/>
      <path id="Path_125" data-name="Path 125" d="M59.713,38.542,20.41,0h.4l38.9,38.147Z" transform="translate(-5.341 0)" fill="#50aec4"/>
      <path id="Path_126" data-name="Path 126" d="M59.57,38.937,19.865,0h.4l39.3,38.542Z" transform="translate(-5.198 0)" fill="#51adc5"/>
      <path id="Path_127" data-name="Path 127" d="M59.427,39.332,19.319,0h.4L59.427,38.937Z" transform="translate(-5.055 0)" fill="#52acc5"/>
      <path id="Path_128" data-name="Path 128" d="M59.285,39.726,18.774,0h.4L59.285,39.331Z" transform="translate(-4.912 0)" fill="#53abc6"/>
      <path id="Path_129" data-name="Path 129" d="M59.142,40.121,18.229,0h.4L59.142,39.726Z" transform="translate(-4.77 0)" fill="#54aac6"/>
      <path id="Path_130" data-name="Path 130" d="M59,40.516,17.684,0h.4L59,40.121Z" transform="translate(-4.627 0)" fill="#55a9c6"/>
      <path id="Path_131" data-name="Path 131" d="M58.857,40.911,17.139,0h.4L58.857,40.516Z" transform="translate(-4.485 0)" fill="#56a8c7"/>
      <path id="Path_132" data-name="Path 132" d="M58.714,41.305,16.594,0H17L58.714,40.91Z" transform="translate(-4.342 0)" fill="#57a7c7"/>
      <path id="Path_133" data-name="Path 133" d="M58.572,41.7,16.049,0h.4l42.12,41.3Z" transform="translate(-4.199 0)" fill="#58a6c8"/>
      <path id="Path_134" data-name="Path 134" d="M58.429,42.095,15.5,0h.4L58.429,41.7Z" transform="translate(-4.057 0)" fill="#59a5c8"/>
      <path id="Path_135" data-name="Path 135" d="M58.287,42.489,14.959,0h.4L58.287,42.094Z" transform="translate(-3.914 0)" fill="#5aa4c9"/>
      <path id="Path_136" data-name="Path 136" d="M58.144,42.884,14.414,0h.4L58.144,42.489Z" transform="translate(-3.772 0)" fill="#5ba3c9"/>
      <path id="Path_137" data-name="Path 137" d="M58,43.279,13.868,0h.4L58,42.883Z" transform="translate(-3.629 0)" fill="#5ca2c9"/>
      <path id="Path_138" data-name="Path 138" d="M57.864,43.673,13.345.016,13.36,0h.371L57.864,43.278Z" transform="translate(-3.492 0)" fill="#5da1ca"/>
      <path id="Path_139" data-name="Path 139" d="M57.794,44.073,13.077.222l.2-.2L57.794,43.678Z" transform="translate(-3.422 -0.005)" fill="#5ea0ca"/>
      <path id="Path_140" data-name="Path 140" d="M57.724,44.386l-.077.078L12.81.495l.2-.2L57.724,44.145Z" transform="translate(-3.352 -0.077)" fill="#5f9fcb"/>
      <rect id="Rectangle_29" data-name="Rectangle 29" width="0.282" height="62.799" transform="translate(9.272 0.608) rotate(-45.531)" fill="#609ecb"/>
      <path id="Path_141" data-name="Path 141" d="M57.311,44.808l-.2.2L12.276,1.04l.2-.2Z" transform="translate(-3.212 -0.219)" fill="#619dcb"/>
      <path id="Path_142" data-name="Path 142" d="M57.044,45.081l-.2.2L12.009,1.312l.2-.2Z" transform="translate(-3.142 -0.29)" fill="#629ccc"/>
      <rect id="Rectangle_30" data-name="Rectangle 30" width="0.282" height="62.799" transform="translate(8.68 1.211) rotate(-45.531)" fill="#639bcc"/>
      <path id="Path_143" data-name="Path 143" d="M56.509,45.626l-.2.2L11.474,1.857l.2-.2Z" transform="translate(-3.002 -0.433)" fill="#649acd"/>
      <rect id="Rectangle_31" data-name="Rectangle 31" width="0.282" height="62.799" transform="translate(8.286 1.614) rotate(-45.531)" fill="#6599cd"/>
      <path id="Path_144" data-name="Path 144" d="M55.975,46.171l-.2.2L10.94,2.4l.2-.2Z" transform="translate(-2.863 -0.576)" fill="#6698cd"/>
      <rect id="Rectangle_32" data-name="Rectangle 32" width="0.282" height="62.799" transform="translate(7.891 2.016) rotate(-45.531)" fill="#6797ce"/>
      <path id="Path_145" data-name="Path 145" d="M55.44,46.716l-.2.2L10.405,2.947l.2-.2Z" transform="translate(-2.723 -0.718)" fill="#6896ce"/>
      <path id="Path_146" data-name="Path 146" d="M55.173,46.988l-.2.2L10.138,3.22l.2-.2Z" transform="translate(-2.653 -0.79)" fill="#6995cf"/>
      <rect id="Rectangle_33" data-name="Rectangle 33" width="0.282" height="62.799" transform="translate(7.299 2.62) rotate(-45.531)" fill="#6a94cf"/>
      <path id="Path_147" data-name="Path 147" d="M54.638,47.533l-.2.2L9.6,3.765l.2-.2Z" transform="translate(-2.513 -0.932)" fill="#6b93d0"/>
      <rect id="Rectangle_34" data-name="Rectangle 34" width="0.282" height="62.799" transform="translate(6.905 3.022) rotate(-45.531)" fill="#6c92d0"/>
      <path id="Path_148" data-name="Path 148" d="M54.1,48.078l-.2.2L9.069,4.31l.2-.2Z" transform="translate(-2.373 -1.075)" fill="#6d91d0"/>
      <rect id="Rectangle_35" data-name="Rectangle 35" width="0.282" height="62.799" transform="translate(6.51 3.424) rotate(-45.531)" fill="#6e90d1"/>
      <path id="Path_149" data-name="Path 149" d="M53.57,48.623l-.2.2L8.535,4.855l.2-.2Z" transform="translate(-2.233 -1.217)" fill="#6e8ed1"/>
      <path id="Path_150" data-name="Path 150" d="M53.3,48.9l-.2.2L8.268,5.127l.2-.2Z" transform="translate(-2.163 -1.289)" fill="#6f8dd2"/>
      <rect id="Rectangle_36" data-name="Rectangle 36" width="0.282" height="62.799" transform="translate(5.918 4.028) rotate(-45.531)" fill="#708cd2"/>
      <path id="Path_151" data-name="Path 151" d="M52.768,49.441l-.2.2L7.733,5.672l.2-.2Z" transform="translate(-2.024 -1.431)" fill="#718bd2"/>
      <rect id="Rectangle_37" data-name="Rectangle 37" width="0.282" height="62.799" transform="translate(5.523 4.43) rotate(-45.531)" fill="#728ad3"/>
      <path id="Path_152" data-name="Path 152" d="M52.233,49.986l-.2.2L7.2,6.217l.2-.2Z" transform="translate(-1.884 -1.574)" fill="#7389d3"/>
      <path id="Path_153" data-name="Path 153" d="M51.966,50.258l-.2.2L6.932,6.49l.2-.2Z" transform="translate(-1.814 -1.645)" fill="#7488d4"/>
      <rect id="Rectangle_38" data-name="Rectangle 38" width="0.282" height="62.799" transform="translate(4.932 5.034) rotate(-45.531)" fill="#7587d4"/>
      <path id="Path_154" data-name="Path 154" d="M51.432,50.8l-.2.2L6.4,7.035l.2-.2Z" transform="translate(-1.674 -1.788)" fill="#7686d5"/>
      <rect id="Rectangle_39" data-name="Rectangle 39" width="0.282" height="62.799" transform="translate(4.537 5.436) rotate(-45.531)" fill="#7785d5"/>
      <path id="Path_155" data-name="Path 155" d="M50.9,51.348l-.2.2L5.863,7.58l.2-.2Z" transform="translate(-1.534 -1.93)" fill="#7884d5"/>
      <rect id="Rectangle_40" data-name="Rectangle 40" width="0.282" height="62.799" transform="translate(4.142 5.839) rotate(-45.531)" fill="#7983d6"/>
      <path id="Path_156" data-name="Path 156" d="M50.363,51.893l-.2.2L5.328,8.125l.2-.2Z" transform="translate(-1.394 -2.073)" fill="#7a82d6"/>
      <path id="Path_157" data-name="Path 157" d="M50.1,52.166l-.2.2L5.061,8.4l.2-.2Z" transform="translate(-1.324 -2.144)" fill="#7b81d7"/>
      <rect id="Rectangle_41" data-name="Rectangle 41" width="0.282" height="62.799" transform="translate(3.55 6.442) rotate(-45.531)" fill="#7c80d7"/>
      <path id="Path_158" data-name="Path 158" d="M49.561,52.711l-.2.2L4.527,8.942l.2-.2Z" transform="translate(-1.184 -2.287)" fill="#7d7fd7"/>
      <rect id="Rectangle_42" data-name="Rectangle 42" width="0.282" height="62.799" transform="translate(3.156 6.845) rotate(-45.531)" fill="#7e7ed8"/>
      <path id="Path_159" data-name="Path 159" d="M49.027,53.256l-.2.2L3.992,9.487l.2-.2Z" transform="translate(-1.045 -2.43)" fill="#7f7dd8"/>
      <rect id="Rectangle_43" data-name="Rectangle 43" width="0.282" height="62.799" transform="translate(2.761 7.247) rotate(-45.531)" fill="#807cd9"/>
      <path id="Path_160" data-name="Path 160" d="M48.492,53.8l-.2.2L3.458,10.032l.2-.2Z" transform="translate(-0.905 -2.572)" fill="#817bd9"/>
      <path id="Path_161" data-name="Path 161" d="M48.225,54.073l-.2.2L3.19,10.3l.2-.2Z" transform="translate(-0.835 -2.644)" fill="#827ad9"/>
      <rect id="Rectangle_44" data-name="Rectangle 44" width="0.282" height="62.799" transform="matrix(0.701, -0.714, 0.714, 0.701, 2.169, 7.851)" fill="#8379da"/>
      <path id="Path_162" data-name="Path 162" d="M47.691,54.618l-.2.2L2.656,10.85l.2-.2Z" transform="translate(-0.695 -2.786)" fill="#8478da"/>
      <rect id="Rectangle_45" data-name="Rectangle 45" width="0.282" height="62.799" transform="matrix(0.701, -0.714, 0.714, 0.701, 1.775, 8.253)" fill="#8577db"/>
      <path id="Path_163" data-name="Path 163" d="M47.156,55.163l-.2.2L2.122,11.395l.2-.2Z" transform="translate(-0.555 -2.929)" fill="#8676db"/>
      <path id="Path_164" data-name="Path 164" d="M46.889,55.436l-.2.2L1.854,11.667l.2-.2Z" transform="translate(-0.485 -3)" fill="#8775dc"/>
      <rect id="Rectangle_46" data-name="Rectangle 46" width="0.282" height="62.799" transform="matrix(0.701, -0.714, 0.714, 0.701, 1.183, 8.857)" fill="#8874dc"/>
      <path id="Path_165" data-name="Path 165" d="M46.354,55.981l-.2.2L1.32,12.212l.2-.2Z" transform="translate(-0.345 -3.143)" fill="#8973dc"/>
      <rect id="Rectangle_47" data-name="Rectangle 47" width="0.282" height="62.799" transform="matrix(0.701, -0.714, 0.714, 0.701, 0.788, 9.259)" fill="#8a72dd"/>
      <path id="Path_166" data-name="Path 166" d="M45.82,56.526l-.2.2L.785,12.757l.2-.2Z" transform="translate(-0.206 -3.285)" fill="#8b71dd"/>
      <rect id="Rectangle_48" data-name="Rectangle 48" width="0.282" height="62.799" transform="translate(0.394 9.662) rotate(-45.531)" fill="#8c70de"/>
      <path id="Path_167" data-name="Path 167" d="M45.286,57.071l-.2.2L.251,13.3l.2-.2Z" transform="translate(-0.066 -3.428)" fill="#8d6fde"/>
      <path id="Path_168" data-name="Path 168" d="M45.023,57.343l-.2.2L0,13.587v-.024l.185-.189Z" transform="translate(0 -3.499)" fill="#8e6ede"/>
      <path id="Path_169" data-name="Path 169" d="M44.825,57.62l-.2.2L0,14.057v-.394Z" transform="translate(0 -3.575)" fill="#8f6ddf"/>
      <path id="Path_170" data-name="Path 170" d="M44.628,57.961l-.123.126h-.151L0,14.591V14.2Z" transform="translate(0 -3.715)" fill="#906cdf"/>
      <path id="Path_171" data-name="Path 171" d="M43.952,58.227,0,15.126v-.394l44.354,43.5Z" transform="translate(0 -3.855)" fill="#916be0"/>
      <path id="Path_172" data-name="Path 172" d="M43.549,58.367,0,15.661v-.4l43.952,43.1Z" transform="translate(0 -3.994)" fill="#926ae0"/>
      <path id="Path_173" data-name="Path 173" d="M43.147,58.507,0,16.2V15.8L43.549,58.507Z" transform="translate(0 -4.134)" fill="#9369e0"/>
      <path id="Path_174" data-name="Path 174" d="M42.744,58.646,0,16.73v-.4L43.146,58.646Z" transform="translate(0 -4.274)" fill="#9468e1"/>
      <path id="Path_175" data-name="Path 175" d="M42.342,58.786,0,17.264V16.87L42.744,58.786Z" transform="translate(0 -4.414)" fill="#9567e1"/>
      <path id="Path_176" data-name="Path 176" d="M41.939,58.926,0,17.8v-.4L42.342,58.926Z" transform="translate(0 -4.554)" fill="#9666e2"/>
      <path id="Path_177" data-name="Path 177" d="M41.537,59.066,0,18.334v-.4L41.939,59.066Z" transform="translate(0 -4.694)" fill="#9765e2"/>
      <path id="Path_178" data-name="Path 178" d="M41.134,59.206,0,18.868v-.394L41.537,59.206Z" transform="translate(0 -4.834)" fill="#9864e3"/>
      <path id="Path_179" data-name="Path 179" d="M40.732,59.346,0,19.4v-.4L41.134,59.346Z" transform="translate(0 -4.974)" fill="#9963e3"/>
      <path id="Path_180" data-name="Path 180" d="M40.329,59.486,0,19.937v-.394L40.732,59.486Z" transform="translate(0 -5.114)" fill="#9a62e3"/>
      <path id="Path_181" data-name="Path 181" d="M39.927,59.626,0,20.472v-.4L40.329,59.626Z" transform="translate(0 -5.253)" fill="#9b61e4"/>
      <path id="Path_182" data-name="Path 182" d="M39.524,59.766,0,21.006v-.394L39.927,59.766Z" transform="translate(0 -5.393)" fill="#9c60e4"/>
      <path id="Path_183" data-name="Path 183" d="M39.122,59.905,0,21.541v-.4l39.524,38.76Z" transform="translate(0 -5.533)" fill="#9d5fe5"/>
      <path id="Path_184" data-name="Path 184" d="M38.719,60.045,0,22.075v-.394L39.122,60.045Z" transform="translate(0 -5.673)" fill="#9e5ee5"/>
      <path id="Path_185" data-name="Path 185" d="M38.317,60.185,0,22.61v-.4l38.72,37.97Z" transform="translate(0 -5.813)" fill="#9f5de5"/>
      <path id="Path_186" data-name="Path 186" d="M37.915,60.325,0,23.145v-.4L38.317,60.325Z" transform="translate(0 -5.953)" fill="#a05ce6"/>
      <path id="Path_187" data-name="Path 187" d="M37.512,60.465,0,23.679v-.394l37.914,37.18Z" transform="translate(0 -6.093)" fill="#a15be6"/>
      <path id="Path_188" data-name="Path 188" d="M37.11,60.6,0,24.214v-.4L37.512,60.6Z" transform="translate(0 -6.232)" fill="#a25ae7"/>
      <path id="Path_189" data-name="Path 189" d="M36.707,60.745,0,24.748v-.394L37.109,60.745Z" transform="translate(0 -6.372)" fill="#a359e7"/>
      <path id="Path_190" data-name="Path 190" d="M36.3,60.885,0,25.283v-.4l36.707,36Z" transform="translate(0 -6.512)" fill="#a458e7"/>
      <path id="Path_191" data-name="Path 191" d="M35.9,61.025,0,25.817v-.394l36.3,35.6Z" transform="translate(0 -6.652)" fill="#a557e8"/>
      <path id="Path_192" data-name="Path 192" d="M35.5,61.164,0,26.352v-.4L35.9,61.164Z" transform="translate(0 -6.792)" fill="#a656e8"/>
      <path id="Path_193" data-name="Path 193" d="M35.1,61.3,0,26.886v-.394L35.5,61.3Z" transform="translate(0 -6.932)" fill="#a755e9"/>
      <path id="Path_194" data-name="Path 194" d="M34.695,61.444,0,27.421v-.4L35.1,61.444Z" transform="translate(0 -7.072)" fill="#a854e9"/>
      <path id="Path_195" data-name="Path 195" d="M34.292,61.584,0,27.955v-.394L34.695,61.584Z" transform="translate(0 -7.212)" fill="#a953ea"/>
      <path id="Path_196" data-name="Path 196" d="M33.89,61.724,0,28.49v-.4L34.292,61.724Z" transform="translate(0 -7.351)" fill="#aa52ea"/>
      <path id="Path_197" data-name="Path 197" d="M33.487,61.864,0,29.025v-.4L33.89,61.864Z" transform="translate(0 -7.491)" fill="#ab51ea"/>
      <path id="Path_198" data-name="Path 198" d="M33.085,62,0,29.559v-.394L33.487,62Z" transform="translate(0 -7.631)" fill="#ac50eb"/>
      <path id="Path_199" data-name="Path 199" d="M32.682,62.143,0,30.094v-.4L33.085,62.143Z" transform="translate(0 -7.771)" fill="#ad4feb"/>
      <path id="Path_200" data-name="Path 200" d="M32.28,62.283,0,30.628v-.394l32.682,32.05Z" transform="translate(0 -7.911)" fill="#ae4eec"/>
      <path id="Path_201" data-name="Path 201" d="M31.877,62.423,0,31.163v-.4L32.28,62.423Z" transform="translate(0 -8.051)" fill="#af4dec"/>
      <path id="Path_202" data-name="Path 202" d="M31.475,62.563,0,31.7V31.3l31.878,31.26Z" transform="translate(0 -8.191)" fill="#b04cec"/>
      <path id="Path_203" data-name="Path 203" d="M31.072,62.7,0,32.232v-.4L31.475,62.7Z" transform="translate(0 -8.33)" fill="#b14bed"/>
      <path id="Path_204" data-name="Path 204" d="M30.67,62.843,0,32.766v-.394L31.072,62.843Z" transform="translate(0 -8.47)" fill="#b24aed"/>
      <path id="Path_205" data-name="Path 205" d="M30.268,62.983,0,33.3v-.4L30.67,62.983Z" transform="translate(0 -8.61)" fill="#b349ee"/>
      <path id="Path_206" data-name="Path 206" d="M29.865,63.123,0,33.836v-.4L30.268,63.123Z" transform="translate(0 -8.75)" fill="#b448ee"/>
      <path id="Path_207" data-name="Path 207" d="M29.463,63.263,0,34.37v-.394L29.865,63.263Z" transform="translate(0 -8.89)" fill="#b547ee"/>
      <path id="Path_208" data-name="Path 208" d="M29.06,63.4,0,34.9v-.4L29.463,63.4Z" transform="translate(0 -9.03)" fill="#b646ef"/>
      <path id="Path_209" data-name="Path 209" d="M28.658,63.542,0,35.439v-.394l29.06,28.5Z" transform="translate(0 -9.17)" fill="#b745ef"/>
      <path id="Path_210" data-name="Path 210" d="M28.255,63.682,0,35.974v-.4l28.658,28.1Z" transform="translate(0 -9.31)" fill="#b744f0"/>
      <path id="Path_211" data-name="Path 211" d="M27.853,63.822,0,36.508v-.394L28.255,63.822Z" transform="translate(0 -9.45)" fill="#b843f0"/>
      <path id="Path_212" data-name="Path 212" d="M27.45,63.962,0,37.043v-.4L27.853,63.962Z" transform="translate(0 -9.589)" fill="#b942f1"/>
      <path id="Path_213" data-name="Path 213" d="M27.048,64.1,0,37.577v-.394L27.45,64.1Z" transform="translate(0 -9.729)" fill="#ba41f1"/>
      <path id="Path_214" data-name="Path 214" d="M26.645,64.241,0,38.112v-.4L27.048,64.241Z" transform="translate(0 -9.869)" fill="#bb40f1"/>
      <path id="Path_215" data-name="Path 215" d="M26.243,64.381,0,38.647v-.4l26.645,26.13Z" transform="translate(0 -10.009)" fill="#bc3ff2"/>
      <path id="Path_216" data-name="Path 216" d="M25.841,64.521,0,39.181v-.394L26.243,64.521Z" transform="translate(0 -10.149)" fill="#bd3ef2"/>
      <path id="Path_217" data-name="Path 217" d="M25.438,64.661,0,39.716v-.4l25.84,25.34Z" transform="translate(0 -10.289)" fill="#be3df3"/>
      <path id="Path_218" data-name="Path 218" d="M25.036,64.8,0,40.25v-.394L25.438,64.8Z" transform="translate(0 -10.429)" fill="#bf3cf3"/>
      <path id="Path_219" data-name="Path 219" d="M24.633,64.941,0,40.785v-.4L25.035,64.941Z" transform="translate(0 -10.569)" fill="#c03bf3"/>
      <path id="Path_220" data-name="Path 220" d="M24.231,65.081,0,41.319v-.394L24.633,65.081Z" transform="translate(0 -10.708)" fill="#c13af4"/>
      <path id="Path_221" data-name="Path 221" d="M23.828,65.221,0,41.854v-.4L24.23,65.221Z" transform="translate(0 -10.848)" fill="#c239f4"/>
      <path id="Path_222" data-name="Path 222" d="M23.426,65.361,0,42.388v-.394L23.828,65.361Z" transform="translate(0 -10.988)" fill="#c338f5"/>
      <path id="Path_223" data-name="Path 223" d="M23.023,65.5,0,42.923v-.4L23.425,65.5Z" transform="translate(0 -11.128)" fill="#c437f5"/>
      <path id="Path_224" data-name="Path 224" d="M22.621,65.64,0,43.458v-.4L23.023,65.64Z" transform="translate(0 -11.268)" fill="#c536f6"/>
      <path id="Path_225" data-name="Path 225" d="M22.218,65.78,0,43.992V43.6L22.621,65.78Z" transform="translate(0 -11.408)" fill="#c635f6"/>
      <path id="Path_226" data-name="Path 226" d="M21.816,65.92,0,44.527v-.4L22.218,65.92Z" transform="translate(0 -11.548)" fill="#c734f6"/>
      <path id="Path_227" data-name="Path 227" d="M21.413,66.06,0,45.061v-.394L21.816,66.06Z" transform="translate(0 -11.688)" fill="#c833f7"/>
      <path id="Path_228" data-name="Path 228" d="M21.011,66.2,0,45.6v-.4l21.413,21Z" transform="translate(0 -11.827)" fill="#c932f7"/>
      <path id="Path_229" data-name="Path 229" d="M20.608,66.34,0,46.13v-.394l21.011,20.6Z" transform="translate(0 -11.967)" fill="#ca31f8"/>
      <path id="Path_230" data-name="Path 230" d="M20.206,66.479,0,46.665v-.4l20.608,20.21Z" transform="translate(0 -12.107)" fill="#cb30f8"/>
      <path id="Path_231" data-name="Path 231" d="M19.8,66.619,0,47.2V46.8L20.206,66.619Z" transform="translate(0 -12.247)" fill="#cc2ff8"/>
      <path id="Path_232" data-name="Path 232" d="M19.4,66.759,0,47.734v-.4l19.8,19.42Z" transform="translate(0 -12.387)" fill="#cd2ef9"/>
      <path id="Path_233" data-name="Path 233" d="M19,66.9,0,48.269v-.4L19.4,66.9Z" transform="translate(0 -12.527)" fill="#ce2df9"/>
      <path id="Path_234" data-name="Path 234" d="M18.6,67.039,0,48.8v-.394l19,18.63Z" transform="translate(0 -12.667)" fill="#cf2cfa"/>
      <path id="Path_235" data-name="Path 235" d="M18.194,67.179,0,49.338v-.4L18.6,67.179Z" transform="translate(0 -12.807)" fill="#d02bfa"/>
      <path id="Path_236" data-name="Path 236" d="M17.791,67.319,0,49.872v-.394L18.193,67.319Z" transform="translate(0 -12.947)" fill="#d12afa"/>
      <path id="Path_237" data-name="Path 237" d="M17.389,67.459,0,50.407v-.4L17.791,67.459Z" transform="translate(0 -13.086)" fill="#d229fb"/>
      <path id="Path_238" data-name="Path 238" d="M16.986,67.6,0,50.941v-.394L17.388,67.6Z" transform="translate(0 -13.226)" fill="#d328fb"/>
      <path id="Path_239" data-name="Path 239" d="M16.584,67.738,0,51.476v-.4L16.986,67.738Z" transform="translate(0 -13.366)" fill="#d427fc"/>
      <path id="Path_240" data-name="Path 240" d="M16.181,67.878,0,52.01v-.394L16.584,67.878Z" transform="translate(0 -13.506)" fill="#d526fc"/>
      <path id="Path_241" data-name="Path 241" d="M15.779,68.018,0,52.545v-.4L16.181,68.018Z" transform="translate(0 -13.646)" fill="#d625fd"/>
      <path id="Path_242" data-name="Path 242" d="M15.376,68.158,0,53.08v-.4L15.779,68.158Z" transform="translate(0 -13.786)" fill="#d724fd"/>
      <path id="Path_243" data-name="Path 243" d="M14.974,68.3,0,53.614V53.22L15.376,68.3Z" transform="translate(0 -13.926)" fill="#d823fd"/>
      <path id="Path_244" data-name="Path 244" d="M14.571,68.438,0,54.149v-.4L14.974,68.438Z" transform="translate(0 -14.065)" fill="#d922fe"/>
      <path id="Path_245" data-name="Path 245" d="M14.169,68.578,0,54.683v-.394L14.571,68.578Z" transform="translate(0 -14.205)" fill="#da21fe"/>
      <path id="Path_246" data-name="Path 246" d="M13.766,68.718,0,55.218v-.4L14.169,68.718Z" transform="translate(0 -14.345)" fill="#db20ff"/>
      <path id="Path_247" data-name="Path 247" d="M13.364,68.857,0,55.752v-.394l13.766,13.5Z" transform="translate(0 -14.485)" fill="#dc1fff"/>
      <path id="Path_248" data-name="Path 248" d="M0,55.892,13.364,69H0Z" transform="translate(0 -14.625)" fill="#dc1fff"/>
    </g>
  </g>
  <g id="Group_55" data-name="Group 55" transform="translate(0 0)">
    <g id="Group_54" data-name="Group 54" clip-path="url(#clip-path-2)">
      <path id="Path_249" data-name="Path 249" d="M17.183,46.844a1.247,1.247,0,0,1,.882-.365H48.507a.623.623,0,0,1,.441,1.065l-6.014,6.014a1.246,1.246,0,0,1-.882.365H11.61a.624.624,0,0,1-.442-1.065Z" transform="translate(-2.874 -12.162)" fill="#fff"/>
      <path id="Path_250" data-name="Path 250" d="M17.183,16.434a1.282,1.282,0,0,1,.882-.365H48.507a.623.623,0,0,1,.441,1.065l-6.014,6.014a1.246,1.246,0,0,1-.882.365H11.61a.624.624,0,0,1-.442-1.065Z" transform="translate(-2.874 -4.205)" fill="#fff"/>
      <path id="Path_251" data-name="Path 251" d="M42.934,31.542a1.247,1.247,0,0,0-.882-.365H11.609a.623.623,0,0,0-.441,1.065l6.014,6.014a1.246,1.246,0,0,0,.882.365H48.506a.624.624,0,0,0,.442-1.065Z" transform="translate(-2.874 -8.158)" fill="#fff"/>
    </g>
  </g>
</svg>
