<svg xmlns="http://www.w3.org/2000/svg" xmlns:xlink="http://www.w3.org/1999/xlink" width="32.063" height="30.586" viewBox="0 0 32.063 30.586">
  <defs>
    <clipPath id="clip-path">
      <rect id="Rectangle_3" data-name="Rectangle 3" width="32.062" height="30.586" fill="none"/>
    </clipPath>
  </defs>
  <g id="Group_4" data-name="Group 4" transform="translate(0 0)">
    <g id="Group_3" data-name="Group 3" transform="translate(0 0)" clip-path="url(#clip-path)">
      <path id="Path_4" data-name="Path 4" d="M16.883.529l4.439,8.994,9.926,1.442a.95.95,0,0,1,.526,1.621l-7.182,7,1.7,9.886a.95.95,0,0,1-1.379,1l-8.878-4.668L7.153,30.475a.95.95,0,0,1-1.379-1l1.7-9.886-7.182-7a.95.95,0,0,1,.526-1.621L10.74,9.524,15.179.529a.95.95,0,0,1,1.7,0" transform="translate(0 0)" fill="#9ca1b2"/>
    </g>
  </g>
</svg>
